<svg id="Layer_3" enable-background="new 0 0 64 64" height="512" viewBox="0 0 64 64" width="512" xmlns="http://www.w3.org/2000/svg"><g><path d="m15 43h23v-5l11 9-11 9v-5h-23z" fill="#f4b2b0"/><g fill="#b3404a"><path d="m6 33h10c.552 0 1-.448 1-1v-4c0-.552-.448-1-1-1h-5v-1h3c.552 0 1-.448 1-1v-4c0-.552-.448-1-1-1h-3v-1h5c.552 0 1-.448 1-1v-4c0-.552-.448-1-1-1h-10c-.552 0-1 .448-1 1v18c0 .552.448 1 1 1zm1-18h8v2h-5c-.552 0-1 .448-1 1v3c0 .552.448 1 1 1h3v2h-3c-.552 0-1 .448-1 1v3c0 .552.448 1 1 1h5v2h-8z"/><path d="m19.149 32.526c.183.294.504.474.851.474h5c.379 0 .725-.214.895-.553l1.105-2.211 1.105 2.211c.17.339.516.553.895.553h5c.347 0 .668-.18.851-.474.182-.295.199-.663.044-.973l-4.277-8.553 4.276-8.553c.155-.31.138-.678-.044-.973-.182-.294-.503-.474-.85-.474h-5c-.379 0-.725.214-.895.553l-1.105 2.211-1.105-2.211c-.17-.339-.516-.553-.895-.553h-5c-.347 0-.668.18-.851.474-.182.295-.199.663-.044.973l4.277 8.553-4.276 8.553c-.155.31-.139.678.043.973zm6.246-9.079c.141-.282.141-.613 0-.895l-3.777-7.552h2.764l1.724 3.447c.339.678 1.45.678 1.789 0l1.723-3.447h2.764l-3.776 7.553c-.141.282-.141.613 0 .895l3.776 7.552h-2.764l-1.724-3.447c-.339-.678-1.45-.678-1.789 0l-1.723 3.447h-2.764z"/><path d="m38 33h4c.552 0 1-.448 1-1v-18c0-.552-.448-1-1-1h-4c-.552 0-1 .448-1 1v18c0 .552.448 1 1 1zm1-18h2v16h-2z"/><path d="m58 13h-12c-.552 0-1 .448-1 1v4c0 .552.448 1 1 1h3v13c0 .552.448 1 1 1h4c.552 0 1-.448 1-1v-13h3c.552 0 1-.448 1-1v-4c0-.552-.448-1-1-1zm-1 4h-3c-.552 0-1 .448-1 1v13h-2v-13c0-.552-.448-1-1-1h-3v-2h10z"/><path d="m38.633 37.226c-.3-.244-.713-.297-1.062-.129-.348.165-.571.516-.571.903v4h-22c-.552 0-1 .447-1 1v8c0 .553.448 1 1 1h22v4c0 .387.223.738.572.903.136.066.282.097.428.097.227 0 .451-.077.633-.226l11-9c.232-.19.367-.474.367-.774s-.135-.584-.367-.774zm.367 16.664v-2.89c0-.553-.448-1-1-1h-22v-6h22c.552 0 1-.447 1-1v-2.89l8.421 6.89z"/><path d="m58 1h-52c-2.757 0-5 2.243-5 5v52c0 2.757 2.243 5 5 5h52c2.757 0 5-2.243 5-5v-52c0-2.757-2.243-5-5-5zm3 57c0 1.654-1.346 3-3 3h-52c-1.654 0-3-1.346-3-3v-52c0-1.654 1.346-3 3-3h52c1.654 0 3 1.346 3 3z"/><path d="m8 11c1.654 0 3-1.346 3-3s-1.346-3-3-3-3 1.346-3 3 1.346 3 3 3zm0-4c.551 0 1 .449 1 1s-.449 1-1 1-1-.449-1-1 .449-1 1-1z"/><path d="m8 53c-1.654 0-3 1.346-3 3s1.346 3 3 3 3-1.346 3-3-1.346-3-3-3zm0 4c-.551 0-1-.448-1-1s.449-1 1-1 1 .448 1 1-.449 1-1 1z"/><path d="m56 5c-1.654 0-3 1.346-3 3s1.346 3 3 3 3-1.346 3-3-1.346-3-3-3zm0 4c-.551 0-1-.449-1-1s.449-1 1-1 1 .449 1 1-.449 1-1 1z"/><path d="m56 53c-1.654 0-3 1.346-3 3s1.346 3 3 3 3-1.346 3-3-1.346-3-3-3zm0 4c-.551 0-1-.448-1-1s.449-1 1-1 1 .448 1 1-.449 1-1 1z"/></g></g></svg>