<?xml version="1.0"?>
<svg xmlns="http://www.w3.org/2000/svg" height="512px" viewBox="0 -40 512 511" width="512px" class=""><g><path d="m0 .5v260.992188h512v-260.992188zm332.0625 145.496094h-31.039062v7.226562c0 6.941406-1.582032 13.527344-4.402344 19.40625l23.769531 23.769532-21.214844 21.210937-23.769531-23.765625c-5.878906 2.820312-12.460938 4.402344-19.40625 4.402344s-13.527344-1.582032-19.40625-4.402344l-23.769531 23.765625-21.214844-21.210937 23.769531-23.769532c-2.820312-5.878906-4.402344-12.460937-4.402344-19.40625v-7.226562h-31.039062v-30h31.039062v-7.222656c0-6.945313 1.582032-13.527344 4.402344-19.410157l-23.769531-23.769531 21.214844-21.210938 23.769531 23.769532c5.878906-2.820313 12.460938-4.40625 19.40625-4.40625s13.527344 1.585937 19.40625 4.40625l23.769531-23.769532 21.214844 21.210938-23.769531 23.769531c2.820312 5.882813 4.402344 12.464844 4.402344 19.410157v7.222656h31.039062zm0 0" data-original="#000000" class="active-path" data-old_color="#000000" fill="#FFFFFF"/><path d="m271.023438 108.773438c0-8.285157-6.738282-15.023438-15.023438-15.023438s-15.023438 6.738281-15.023438 15.023438v44.445312c0 8.285156 6.738282 15.023438 15.023438 15.023438s15.023438-6.738282 15.023438-15.023438zm0 0" data-original="#000000" class="active-path" data-old_color="#000000" fill="#FFFFFF"/><path d="m0 371.554688h160.9375v30.050781h-30.039062v30h250.203124v-30h-30.039062v-30.050781h160.9375v-80.0625h-512zm0 0" data-original="#000000" class="active-path" data-old_color="#000000" fill="#FFFFFF"/></g> </svg>
