<svg xmlns="http://www.w3.org/2000/svg" width="16" height="12.8" viewBox="0 0 16 12.8"><defs><style>.a{fill:#fff;}</style></defs><path class="a" d="M12.449,5.649l-5.3-5.3A1.2,1.2,0,0,0,6.3,0H1.2A1.2,1.2,0,0,0,0,1.2V6.3a1.2,1.2,0,0,0,.351.849l5.3,5.3a1.2,1.2,0,0,0,1.7,0l5.1-5.1a1.2,1.2,0,0,0,0-1.7ZM2.8,4A1.2,1.2,0,1,1,4,2.8,1.2,1.2,0,0,1,2.8,4ZM15.649,7.346l-5.1,5.1a1.2,1.2,0,0,1-1.7,0L8.84,12.44l4.351-4.351a2.25,2.25,0,0,0,0-3.182L8.285,0H9.5a1.2,1.2,0,0,1,.849.351l5.3,5.3A1.2,1.2,0,0,1,15.649,7.346Z"/></svg>