<svg xmlns="http://www.w3.org/2000/svg" width="14.6" height="16.686" viewBox="0 0 14.6 16.686"><defs><style>.a{fill:#fff;}</style></defs><path class="a" d="M14.078,1.043H10.168L9.861.433A.782.782,0,0,0,9.161,0H5.436a.773.773,0,0,0-.7.433l-.306.609H.521A.521.521,0,0,0,0,1.564V2.607a.521.521,0,0,0,.521.521H14.078a.521.521,0,0,0,.521-.521V1.564A.521.521,0,0,0,14.078,1.043ZM1.734,15.219a1.564,1.564,0,0,0,1.561,1.467h8.01a1.564,1.564,0,0,0,1.561-1.466l.691-11.048H1.043Z" transform="translate(0 0)"/></svg>