<svg height="490pt" viewBox="0 -1 490 490" width="490pt" xmlns="http://www.w3.org/2000/svg"><path d="m374.15625 484h-344.3125c-14.273438 0-25.84375-11.570312-25.84375-25.84375v-51.230469c0-39.03125 31.636719-70.667969 70.664062-70.667969h254.667969c39.027344 0 70.664063 31.636719 70.664063 70.667969v51.230469c.003906 14.273438-11.566406 25.84375-25.839844 25.84375zm0 0" fill="#a4c9ff"/><path d="m374.15625 488h-344.3125c-16.457031 0-29.84375-13.386719-29.84375-29.84375v-51.230469c0-41.171875 33.492188-74.667969 74.664062-74.667969h254.671876c41.171874 0 74.664062 33.496094 74.664062 74.667969v51.230469c0 16.457031-13.386719 29.84375-29.84375 29.84375zm-299.492188-147.742188c-36.757812 0-66.664062 29.90625-66.664062 66.667969v51.230469c0 12.046875 9.796875 21.84375 21.84375 21.84375h344.3125c12.042969 0 21.84375-9.796875 21.84375-21.84375v-51.230469c0-36.761719-29.90625-66.667969-66.664062-66.667969zm0 0" fill="#3762cc"/><path d="m170.058594 446.058594h63.882812c22.617188 0 40.953125-18.335938 40.953125-40.953125v-63.488281h-145.789062v63.488281c0 22.617187 18.335937 40.953125 40.953125 40.953125zm0 0" fill="#f9cfcf"/><path d="m355.003906 195.230469c.667969 5.828125 1.046875 11.742187 1.046875 17.75v34.941406c0 85.34375-69.183593 154.527344-154.527343 154.527344s-154.53125-69.183594-154.53125-154.527344v-34.941406c0-6.007813.378906-11.921875 1.046874-17.75zm0 0" fill="#f9cfcf"/><path d="m326.871094 337.320312c23.515625 0 42.578125-19.058593 42.578125-42.578124 0-23.515626-19.0625-42.578126-42.578125-42.578126s-42.578125 19.0625-42.578125 42.578126c0 23.519531 19.0625 42.578124 42.578125 42.578124zm0 0" fill="#f9cfcf"/><path d="m77.128906 337.320312c23.515625 0 42.578125-19.058593 42.578125-42.578124 0-23.515626-19.0625-42.578126-42.578125-42.578126s-42.578125 19.0625-42.578125 42.578126c0 23.519531 19.0625 42.578124 42.578125 42.578124zm0 0" fill="#f9cfcf"/><path d="m201.523438 406.449219c-50.609376 0-98.382813-24.386719-128.199219-65.332031-24.140625-1.9375-42.777344-21.9375-42.777344-46.375 0-12.191407 4.640625-23.597657 13.105469-32.332032-.4375-4.816406-.660156-9.683594-.660156-14.488281v-34.945313c0-5.859374.363281-11.984374 1.070312-18.203124.230469-2.019532 1.945312-3.542969 3.976562-3.542969h306.964844c2.03125 0 3.738282 1.527343 3.972656 3.542969.710938 6.199218 1.070313 12.324218 1.070313 18.203124v34.945313c0 4.457031-.199219 9.027344-.589844 13.609375 8.914063 8.75 13.992188 20.742188 13.992188 33.210938 0 24.585937-19.464844 45.015624-43.800781 46.46875-29.820313 40.886718-77.566407 65.238281-128.125 65.238281zm-149.878907-207.21875c-.433593 4.695312-.652343 9.304687-.652343 13.746093v34.945313c0 5.175781.273437 10.417969.800781 15.582031.128906 1.230469-.324219 2.457032-1.222657 3.308594-7.753906 7.375-12.023437 17.292969-12.023437 27.929688 0 20.785156 16.28125 37.695312 37.066406 38.5 1.242188.046874 2.390625.667968 3.109375 1.683593 28.234375 39.777344 74.140625 63.523438 122.796875 63.523438 48.632813 0 94.527344-23.730469 122.765625-63.476563.738282-1.039062 1.925782-1.660156 3.199219-1.683594 20.9375-.328124 37.964844-17.621093 37.964844-38.542968 0-10.882813-4.675781-21.332032-12.824219-28.660156-.945312-.851563-1.429688-2.097657-1.308594-3.363282.484375-4.984375.730469-9.964844.730469-14.796875v-34.945312c0-4.457031-.21875-9.066407-.652344-13.75zm0 0" fill="#3762cc"/><path d="m229.570312 379.621094c-2.207031 0-4-1.792969-4-4 0-10.5-11.664062-19.042969-26-19.042969-14.335937 0-26 8.542969-26 19.042969 0 2.207031-1.792968 4-4 4-2.207031 0-4-1.792969-4-4 0-14.910156 15.25-27.042969 34-27.042969 18.746094 0 34 12.132813 34 27.042969 0 2.207031-1.789062 4-4 4zm0 0" fill="#3762cc"/><path d="m137.679688 328.867188c-7.289063 0-13.21875-5.929688-13.21875-13.21875v-22.027344c0-7.289063 5.929687-13.21875 13.21875-13.21875 7.289062 0 13.214843 5.929687 13.214843 13.21875v22.027344c0 7.289062-5.929687 13.21875-13.214843 13.21875zm0 0" fill="#3762cc"/><path d="m266.320312 328.867188c-7.289062 0-13.214843-5.929688-13.214843-13.21875v-22.027344c0-7.289063 5.929687-13.21875 13.214843-13.21875 7.289063 0 13.21875 5.929687 13.21875 13.21875v22.027344c0 7.289062-5.929687 13.21875-13.21875 13.21875zm0 0" fill="#3762cc"/><path d="m362.664062 141.808594c-.011718-.082032-.019531-.164063-.03125-.246094-.035156-.238281-.085937-.472656-.121093-.710938-.273438-1.710937-.578125-3.414062-.914063-5.109374-.132812-.660157-.273437-1.316407-.414062-1.976563-.285156-1.3125-.585938-2.621094-.90625-3.917969-.160156-.65625-.316406-1.316406-.488282-1.96875-.472656-1.792968-.972656-3.582031-1.519531-5.347656-.15625-.507812-.332031-1.003906-.496093-1.507812-.425782-1.320313-.867188-2.632813-1.332032-3.9375-.265625-.746094-.546875-1.492188-.828125-2.234376-.410156-1.082031-.832031-2.15625-1.269531-3.222656-.300781-.734375-.597656-1.46875-.90625-2.199218-.683594-1.585938-1.390625-3.160157-2.132812-4.714844-.335938-.703125-.695313-1.390625-1.042969-2.089844-.5-1-1.003907-2-1.53125-2.984375-.417969-.792969-.851563-1.578125-1.285157-2.359375-.496093-.886719-1.003906-1.765625-1.519531-2.640625-.449219-.757813-.886719-1.515625-1.347656-2.261719-.875-1.429687-1.777344-2.839844-2.710937-4.230468h.007812c-35.828125-58.511719-107.902344-65.410157-131.253906-66.070313-4.109375-.117187-7.492188 3.1875-7.492188 7.296875h-.183594c0-4.113281-3.378906-7.414062-7.492187-7.296875-23.351563.660156-95.425781 7.558594-131.253906 66.070313h.007812c-.933593 1.390624-1.832031 2.800781-2.714843 4.230468-.457032.746094-.894532 1.503906-1.34375 2.261719-.515626.875-1.023438 1.753906-1.519532 2.640625-.433594.78125-.867187 1.566406-1.285156 2.359375-.527344.984375-1.03125 1.984375-1.53125 2.984375-.347656.699219-.707031 1.386719-1.042969 2.089844-.742187 1.554687-1.449219 3.128906-2.132812 4.714844-.3125.726562-.605469 1.460937-.90625 2.199218-.433594 1.066406-.859375 2.140625-1.269531 3.222656-.28125.742188-.5625 1.488282-.828126 2.234376-.46875 1.300781-.90625 2.617187-1.332031 3.9375-.164062.503906-.339843 1-.496093 1.507812-.292969.949219-.542969 1.910156-.816407 2.867188v-.140626s-27.359375 94.675782.824219 138.660157c0 0 58.277344-3.363281 88.925781-15.90625.644531-.257813 1.28125-.527344 1.914063-.804688.203125-.085937.402344-.175781.601562-.261719.621094-.285156 1.234375-.574218 1.84375-.878906.484375-.234375.960938-.46875 1.425782-.710937.046874-.027344.089843-.050781.136718-.074219 1.640625-.859375 3.175782-1.75 4.539063-2.683594 15.578125-10.183594 26.054687-27.527344 26.746093-47.363281h.109376c1.230468 38.136719 32.511718 68.683594 70.953124 68.683594h112.761719c20.882813-32.59375 11.277344-92.992188 4.894531-122.109375zm0 0" fill="#4671c6"/><path d="m47.816406 267.914062c-1.359375 0-2.628906-.691406-3.367187-1.84375-28.832031-44.992187-2.4375-137.992187-1.296875-141.929687.046875-.164063.105468-.324219.171875-.480469l.050781-.183594c.195312-.710937.394531-1.425781.609375-2.128906.101563-.324218.210937-.648437.320313-.972656l.191406-.578125c.441406-1.363281.894531-2.710937 1.375-4.054687.277344-.777344.5625-1.542969.855468-2.308594.417969-1.113282.859376-2.21875 1.308594-3.320313l.140625-.351562c.261719-.636719.519531-1.277344.792969-1.90625.703125-1.640625 1.433594-3.265625 2.199219-4.867188.234375-.488281.480469-.972656.726562-1.460937l.34375-.6875c.519531-1.035156 1.039063-2.0625 1.578125-3.082032.433594-.808593.878906-1.621093 1.324219-2.421874.511719-.921876 1.039063-1.820313 1.566406-2.722657l.300781-.515625c.359376-.609375.714844-1.214844 1.085938-1.816406.859375-1.394531 1.738281-2.777344 2.644531-4.140625.019531-.027344.035157-.054687.050781-.082031 37.109376-60.597656 112.371094-67.351563 134.554688-67.980469 2.886719-.140625 5.558594.890625 7.695312 2.742187 2.136719-1.851562 4.921876-2.863281 7.695313-2.742187 22.1875.628906 97.449219 7.382813 134.554687 67.980469.011719.019531.023438.042968.035157.058594.910156 1.371093 1.796875 2.757812 2.660156 4.164062.375.605469.738281 1.222656 1.105469 1.84375l.285156.484375c.53125.910156 1.054688 1.8125 1.566406 2.730469.445313.792968.890625 1.605468 1.324219 2.425781.539063 1.011719 1.058594 2.039063 1.574219 3.074219l.347656.6875c.246094.488281.492188.972656.726562 1.464844.765626 1.597656 1.492188 3.21875 2.199219 4.855468.273438.636719.53125 1.277344.789063 1.914063l.144531.359375c.449219 1.09375.886719 2.199218 1.308594 3.3125.289062.765625.578125 1.535156.851562 2.304687.480469 1.347657.9375 2.699219 1.375 4.054688l.195313.582031c.109375.324219.214844.648438.316406.980469.558594 1.8125 1.078125 3.652343 1.5625 5.503906.132812.5.253906 1 .378906 1.503906l.125.523438c.332032 1.339843.644532 2.683593.9375 4.039062l.074219.363281c.121094.558594.238281 1.113282.351563 1.667969.347656 1.75.660156 3.503907.941406 5.269531l.125.722657c.003906.03125.015625.113281.023437.179687 7.105469 32.5 15.789063 91.765625-5.472656 124.945313-.734375 1.148437-2.003906 1.84375-3.367187 1.84375h-112.761719c-33.460938 0-61.660157-21.53125-71.375-51.785157-4.726563 12.050782-13.125 22.542969-24.246094 29.808594-1.328125.914063-2.945313 1.875-4.871094 2.878906-.640625.335938-1.148437.589844-1.664062.839844-.632813.3125-1.285157.625-1.949219.925782l-.648438.285156c-.664062.292968-1.347656.582031-2.039062.855468-30.875 12.636719-87.765625 16.042969-90.171875 16.183594-.078125 0-.15625.003906-.230469.003906zm126.132813-76.683593c2.15625 0 4.039062 1.710937 4.109375 3.871093 1.171875 36.34375 30.578125 64.8125 66.953125 64.8125h110.523437c18.953125-32.445312 8.632813-92.5625 3.222656-117.253906-.019531-.09375-.039062-.191406-.050781-.289062-.003906-.03125-.023437-.183594-.027343-.214844l-.121094-.691406c-.261719-1.652344-.554688-3.304688-.878906-4.945313-.105469-.515625-.214844-1.039062-.328126-1.5625l-.078124-.363281c-.269532-1.269531-.5625-2.535156-.875-3.792969l-.132813-.542969c-.113281-.457031-.222656-.910156-.339844-1.363281-.460937-1.746093-.945312-3.472656-1.472656-5.1875-.082031-.265625-.167969-.523437-.257813-.78125l-.226562-.683593c-.410156-1.277344-.839844-2.550782-1.289062-3.816407-.257813-.722656-.53125-1.445312-.800782-2.160156-.398437-1.050781-.808594-2.09375-1.234375-3.128906l-.152343-.371094c-.234376-.589844-.476563-1.179687-.726563-1.765625-.660156-1.53125-1.34375-3.058594-2.066406-4.566406-.207031-.441406-.425781-.871094-.644531-1.296875l-.367188-.730469c-.484375-.96875-.972656-1.9375-1.480469-2.890625-.410156-.769531-.824219-1.53125-1.25-2.285156-.484375-.871094-.980469-1.722657-1.476562-2.574219l-.289063-.488281c-.332031-.566407-.664062-1.132813-1.007812-1.695313-.859375-1.386718-1.730469-2.757812-2.632813-4.105468-.074219-.109376-.140625-.21875-.203125-.335938-35.050781-56.980469-106.691406-63.367188-127.832031-63.960938-.867187-.019531-1.738281.300782-2.378906.925782-.644531.625-1 1.46875-1 2.375 0 2.207031-1.789063 4-4 4-2.207031 0-4.183594-1.792969-4.183594-4 0-.90625-.355469-1.746094-1-2.375-.640625-.621094-1.433594-.90625-2.378906-.925782-21.136719.597657-92.765625 6.976563-127.820313 63.941407-.0625.121093-.136718.242187-.214844.359375-.902343 1.347656-1.777343 2.714844-2.628906 4.101562-.339844.550782-.667968 1.109375-.996094 1.667969l-.304687.527344c-.5.847656-.992187 1.699219-1.472656 2.558593-.421875.757813-.839844 1.519532-1.246094 2.285157-.511719.960937-1 1.929687-1.484375 2.894531l-.367188.734375c-.21875.425781-.4375.855469-.644531 1.292969-.71875 1.507812-1.40625 3.035156-2.066406 4.574218-.25.582032-.488281 1.171876-.726563 1.761719l-.148437.363281c-.429687 1.042969-.839844 2.082032-1.234375 3.128907-.273438.722656-.542969 1.445312-.804688 2.167969-.449218 1.261718-.875 2.539062-1.292968 3.816406l-.222656.679687c-.089844.257813-.175782.515625-.257813.777344-.195313.632813-.367187 1.265625-.539063 1.898437l-.246093.875c-.046875.179688-.113281.351563-.183594.519532-2.246094 8.148437-24.4375 91.859375-.691406 132.765625 11.191406-.792969 59.042969-4.730469 85.257812-15.460938.640625-.253906 1.230469-.503906 1.820313-.761719l.59375-.261718c.546875-.246094 1.121094-.523438 1.691406-.800782.46875-.230468.917969-.453124 1.355469-.679687.015625-.007813.171875-.089844.1875-.101563 1.570312-.820312 2.921875-1.621093 4.0625-2.402343 15.070312-9.847657 24.390625-26.355469 25.011719-44.203125.066406-2.152344 1.832031-3.859375 3.988281-3.859375zm0 0" fill="#3762cc"/><path d="m224.070312 39.871094c12.089844.777344 22.085938 9.765625 23.417969 21.101562.460938 3.9375-.101562 7.707032-1.464843 11.105469-.242188.601563 0 1.265625.59375 1.578125.003906.003906.011718.003906.015624.007812.421876.222657.929688.210938 1.347657-.019531 3.90625-2.167969 8.484375-3.378906 13.375-3.289062 13.664062.257812 24.847656 11.007812 24.835937 23.867187 0 3.964844-1.035156 7.695313-2.855468 10.980469-.492188.886719.09375 1.9375 1.144531 2.070313 12.417969 1.542968 22 11.539062 22 23.640624 0 8.257813-4.457031 15.53125-11.230469 19.816407v2.359375c6.773438 4.285156 11.230469 11.558594 11.230469 19.8125 0 13.175781-11.355469 23.859375-25.359375 23.859375-.011719 0-.019532 0-.03125 0-1.179688-.003907-1.917969 1.175781-1.3125 2.128906 2.6875 4.25 4.019531 9.347656 3.410156 14.769531-1.273438 11.363282-11.238281 20.390625-23.351562 21.207032-6.863282.460937-13.195313-1.652344-18.023438-5.417969-.875-.683594-2.21875-.207031-2.40625.855469-2.007812 11.289062-12.441406 19.894531-25.011719 19.894531-4.503906 0-8.730469-1.109375-12.390625-3.046875v-197.792969c4.953125-6.207031 13.046875-10.066406 22.066406-9.488281zm0 0" fill="#f9a7a7"/><path d="m213.183594 202.058594c-.027344 0-.050782 0-.074219 0-2.210937-.003906-3.996094-1.800782-3.988281-4.011719.003906-2.203125 1.792968-3.988281 4-3.988281.019531.007812.039062.003906.0625 0 9.03125 0 16.386718-6.789063 16.414062-15.15625.011719-4.015625-1.652344-7.804688-4.6875-10.679688-3.101562-2.933594-7.25-4.558594-11.679687-4.570312-2.207031-.007813-3.992188-1.800782-3.988281-4.011719.007812-2.207031 1.796874-3.988281 4-3.988281h.015624c6.472657.019531 12.566407 2.417968 17.152344 6.761718 4.652344 4.402344 7.207032 10.269532 7.1875 16.515626-.042968 12.769531-10.984375 23.128906-24.414062 23.128906zm0 0" fill="#3762cc"/><path d="m300.421875 151.910156c6.355469-5.257812 10.054687-12.871094 10.054687-20.992187 0-12.828125-9.296874-23.910157-22.125-27 1.207032-3.089844 1.839844-6.382813 1.839844-9.691407.011719-15.066406-12.890625-27.570312-28.761718-27.871093-3.46875-.078125-6.875.445312-10.109376 1.496093.382813-2.402343.433594-4.859374.140626-7.347656-1.542969-13.140625-13.207032-23.726562-27.136719-24.625-9.949219-.648437-19.453125 3.464844-25.449219 10.980469-.566406.707031-.878906 1.589844-.878906 2.496094v197.796875c0 1.480468.820312 2.84375 2.132812 3.539062 4.347656 2.292969 9.277344 3.507813 14.261719 3.507813 13.035156 0 24.25-8.003907 28.019531-19.503907 5.25 3.121094 11.394532 4.59375 17.695313 4.164063 13.945312-.941406 25.578125-11.582031 27.054687-24.75.527344-4.710937-.167968-9.347656-2.019531-13.613281 14.292969-1.867188 25.335937-13.53125 25.335937-27.59375 0-8.117188-3.699218-15.730469-10.054687-20.992188zm-19.332031 40.851563c-.570313 0-1.121094.105469-1.648438.269531-7.039062-6.140625-17.554687-8.054688-26.730468-4.050781-6.097657 2.660156-10.667969 7.445312-12.875 13.464843-2.105469 5.753907-1.769532 11.957032.953124 17.46875.695313 1.414063 2.113282 2.234376 3.589844 2.230469.59375 0 1.195313-.128906 1.765625-.410156 1.980469-.976563 2.796875-3.375 1.820313-5.355469-1.742188-3.535156-1.960938-7.507812-.617188-11.183594 1.449219-3.953124 4.488282-7.105468 8.558594-8.882812 8.289062-3.609375 18.117188-.273438 21.917969 7.445312 0 .003907.003906.003907.003906.003907 1.269531 2.96875 1.75 6.1875 1.382813 9.457031-1.054688 9.382812-9.5 16.976562-19.644532 17.660156-5.589844.382813-11.023437-1.25-15.292968-4.578125-1.515626-1.183593-3.582032-1.492187-5.394532-.792969-1.804687.691407-3.078125 2.226563-3.410156 4.101563-1.707031 9.613281-10.570312 16.59375-21.074219 16.59375-2.886719 0-5.75-.550781-8.390625-1.601563v-193.773437c4.390625-4.816406 10.949219-7.414063 17.8125-6.960937 10.128906.648437 18.601563 8.207031 19.703125 17.570312.308594 2.660156.035157 5.257812-.746093 7.761719-.007813.019531-.019532.035156-.03125.058593-1.789063 5.027344-7.671876 7.71875-13.117188 6.007813-2.699219-.855469-4.839844-2.636719-6.027344-5.023437-1.074218-2.15625-1.222656-4.585938-.417968-6.839844.742187-2.082032-.34375-4.371094-2.425782-5.109375-2.082031-.746094-4.371094.34375-5.113281 2.425781-1.539063 4.316406-1.257813 8.964844.792969 13.085938 2.164062 4.351562 5.992187 7.578124 10.785156 9.085937 1.886719.597656 3.808594.878906 5.703125.878906 5.289063 0 10.3125-2.246093 13.777344-6.015625 1.097656.121094 2.214843-.054687 3.222656-.613281 3.429687-1.898437 7.417969-2.90625 11.359375-2.785156 11.539062.214843 20.921875 9.125 20.914062 19.863281-.003906 3.183594-.792968 6.226562-2.355468 9.042969-.867188 1.5625-.902344 3.445312-.097656 5.027343.820312 1.621094 2.410156 2.722657 4.246093 2.953126 10.542969 1.3125 18.492188 9.773437 18.492188 19.675781 0 6.535156-3.460938 12.636719-9.257813 16.351562-.191406.097657-.382812.203125-.5625.335938-7.148437 5.347656-17.570312 4.234375-23.226562-2.46875-2.640625-3.125-3.84375-7.023438-3.394532-10.964844.464844-4.042969 2.601563-7.679687 6.023438-10.230469 1.769531-1.324218 2.132812-3.832031.808594-5.601562-1.324219-1.769532-3.828125-2.128906-5.597656-.808594-1.792969 1.339844-3.335938 2.890625-4.644532 4.589844-.859375-1.402344-1.863281-2.738282-3.039062-3.964844-4.546875-4.75-10.777344-7.441406-17.535156-7.582031-.175782 0-.355469-.003907-.53125-.003907-13.214844 0-24.113282 10.078126-24.398438 22.699219-.050781 2.207031 1.695312 4.039063 3.90625 4.089844 2.203125.128906 4.039062-1.699219 4.089844-3.90625.191406-8.273437 7.511718-14.878906 16.402344-14.878906.125 0 .246093 0 .367187.003906 4.621094.09375 8.851563 1.910156 11.921875 5.117187 2.75 2.871094 4.21875 6.566407 4.128906 10.40625-.003906.234376.019532.457032.050782.679688-.261719 5.625 1.582031 11.085938 5.324218 15.519531 4.800782 5.6875 11.910156 8.652344 19.082032 8.652344 3.691406 0 7.390624-.804687 10.804687-2.410156 5.808594 3.714843 9.273437 9.824219 9.273437 16.367187 0 10.945313-9.578124 19.851563-21.386718 19.851563zm0 0" fill="#3762cc"/><path d="m179.929688 39.871094c-12.089844.777344-22.085938 9.765625-23.417969 21.101562-.460938 3.9375.101562 7.707032 1.464843 11.105469.242188.601563 0 1.265625-.59375 1.578125-.003906.003906-.011718.003906-.015624.007812-.421876.222657-.929688.210938-1.347657-.019531-3.90625-2.167969-8.484375-3.378906-13.375-3.289062-13.664062.257812-24.847656 11.007812-24.835937 23.867187 0 3.964844 1.035156 7.695313 2.855468 10.980469.488282.886719-.09375 1.9375-1.144531 2.070313-12.417969 1.542968-22 11.539062-22 23.640624 0 8.257813 4.457031 15.53125 11.230469 19.816407v2.359375c-6.773438 4.285156-11.230469 11.558594-11.230469 19.8125 0 13.175781 11.355469 23.859375 25.359375 23.859375h.03125c1.179688-.003907 1.917969 1.175781 1.3125 2.128906-2.6875 4.25-4.019531 9.347656-3.410156 14.769531 1.273438 11.363282 11.238281 20.390625 23.351562 21.207032 6.863282.460937 13.195313-1.652344 18.023438-5.417969.875-.683594 2.21875-.207031 2.40625.855469 2.007812 11.289062 12.441406 19.894531 25.011719 19.894531 4.503906 0 8.730469-1.109375 12.390625-3.046875v-197.792969c-4.953125-6.207031-13.046875-10.066406-22.066406-9.488281zm0 0" fill="#f9a7a7"/><path d="m190.816406 202.058594c-13.429687 0-24.375-10.359375-24.414062-23.128906-.019532-6.246094 2.535156-12.113282 7.1875-16.515626 4.585937-4.34375 10.679687-6.742187 17.152344-6.761718h.015624c2.203126 0 3.992188 1.785156 4 3.988281.003907 2.207031-1.78125 4.003906-3.988281 4.011719-4.429687.011718-8.578125 1.636718-11.679687 4.570312-3.035156 2.875-4.699219 6.664063-4.6875 10.679688.027344 8.371094 7.386718 15.15625 16.414062 15.15625.023438.003906.042969.007812.0625 0 2.207032 0 3.996094 1.785156 4 3.988281.007813 2.210937-1.777344 4.007813-3.988281 4.011719-.023437 0-.046875 0-.074219 0zm0 0" fill="#3762cc"/><path d="m205.125 46.863281c-5.996094-7.515625-15.539062-11.632812-25.449219-10.980469-13.929687.894532-25.59375 11.480469-27.136719 24.625-.292968 2.484376-.242187 4.945313.140626 7.347657-3.234376-1.050781-6.621094-1.578125-10.109376-1.496094-15.871093.296875-28.773437 12.800781-28.761718 27.867187 0 3.308594.628906 6.601563 1.839844 9.695313-12.828126 3.085937-22.125 14.167969-22.125 27 0 8.121094 3.699218 15.734375 10.054687 20.992187-6.355469 5.257813-10.054687 12.875-10.054687 20.992188 0 14.058594 11.03125 25.71875 25.335937 27.59375-1.851563 4.265625-2.546875 8.902344-2.019531 13.613281 1.476562 13.171875 13.109375 23.8125 27.054687 24.75 6.265625.441407 12.445313-1.042969 17.691407-4.160156 3.769531 11.496094 14.988281 19.5 28.019531 19.5 4.984375 0 9.917969-1.210937 14.261719-3.507813 1.3125-.691406 2.132812-2.054687 2.132812-3.539062v-197.796875c0-.90625-.308594-1.789063-.875-2.496094zm-7.125 197.738281c-2.640625 1.050782-5.503906 1.601563-8.394531 1.601563-10.5 0-19.363281-6.980469-21.070313-16.589844-.332031-1.878906-1.609375-3.414062-3.414062-4.105469-.640625-.246093-1.316406-.367187-1.988282-.367187-1.21875 0-2.425781.394531-3.402343 1.15625-4.273438 3.328125-9.703125 4.960937-15.292969 4.582031-10.148438-.683594-18.59375-8.277344-19.648438-17.660156-.363281-3.269531.113282-6.488281 1.386719-9.457031 0 0 0 0 0-.003907 3.804688-7.714843 13.636719-11.054687 21.917969-7.445312 4.074219 1.777344 7.113281 4.929688 8.558594 8.882812 1.347656 3.675782 1.128906 7.648438-.613282 11.183594-.976562 1.980469-.164062 4.378906 1.820313 5.355469.566406.28125 1.167969.410156 1.761719.410156 1.476562 0 2.894531-.816406 3.59375-2.230469 2.71875-5.515624 3.054687-11.714843.949218-17.46875-2.203124-6.023437-6.773437-10.804687-12.871093-13.464843-9.179688-4.007813-19.699219-2.089844-26.738281 4.054687-.535157-.164062-1.09375-.269531-1.675782-.269531-11.777344 0-21.359375-8.90625-21.359375-19.859375 0-6.539062 3.46875-12.648438 9.273438-16.363281 3.414062 1.605469 7.113281 2.410156 10.808593 2.410156 7.167969 0 14.28125-2.96875 19.082032-8.65625 3.738281-4.429687 5.582031-9.890625 5.320312-15.515625.03125-.222656.058594-.449219.050782-.679688-.085938-3.839843 1.378906-7.539062 4.132812-10.410156 3.066406-3.207031 7.300781-5.019531 11.917969-5.117187.125-.003907.246093-.003907.367187-.003907 8.890625 0 16.214844 6.609376 16.40625 14.882813.046875 2.207031 1.914063 4.035156 4.089844 3.90625 2.207031-.050781 3.957031-1.882813 3.90625-4.089844-.289062-12.621093-11.183594-22.699219-24.398438-22.699219-.175781 0-.355468 0-.535156.003907-6.753906.136719-12.984375 2.828125-17.535156 7.582031-1.171875 1.226562-2.175781 2.558594-3.039062 3.964844-1.304688-1.699219-2.847657-3.253906-4.640626-4.59375-1.773437-1.320313-4.28125-.957032-5.601562.8125-1.320312 1.769531-.957031 4.277344.8125 5.597656 3.417969 2.550781 5.554688 6.1875 6.019531 10.230469.453125 3.945312-.753906 7.839843-3.390625 10.964843-5.660156 6.703126-16.078125 7.816407-23.230468 2.472657-.179688-.136719-.371094-.238281-.5625-.339844-5.796876-3.714844-9.253907-9.816406-9.253907-16.351563 0-9.902343 7.949219-18.363281 18.492188-19.675781 1.835937-.226562 3.421875-1.332031 4.246093-2.953125.804688-1.582031.769532-3.464844-.101562-5.023437-1.558594-2.816407-2.351562-5.863281-2.351562-9.046875-.007813-10.734375 9.375-19.644532 20.914062-19.863282 4.046875-.078124 7.929688.886719 11.367188 2.792969 1 .550781 2.117187.726563 3.210937.609375 3.46875 3.765625 8.492187 6.011719 13.78125 6.011719 1.890625 0 3.816406-.28125 5.703125-.875 4.792969-1.511719 8.621094-4.738281 10.785156-9.085937 2.046875-4.121094 2.328125-8.769532.792969-13.089844-.742187-2.082032-3.03125-3.171875-5.113281-2.425782-2.082032.742188-3.167969 3.03125-2.425782 5.109376.804688 2.253906.65625 4.6875-.417968 6.84375-1.1875 2.382812-3.328125 4.167968-6.023438 5.019531-5.453125 1.714843-11.328125-.980469-13.121094-6.003907-.011718-.023437-.023437-.039062-.027343-.058593-.785157-2.5-1.058594-5.101563-.75-7.761719 1.101562-9.367188 9.570312-16.921875 19.703125-17.574219 6.859375-.433593 13.417968 2.144531 17.8125 6.964844v193.773437zm0 0" fill="#3762cc"/><g fill="#e0ebfc"><path d="m262.792969 163.605469c0 5.703125-4.621094 10.328125-10.324219 10.328125s-10.328125-4.625-10.328125-10.328125 4.625-10.324219 10.328125-10.324219 10.324219 4.621094 10.324219 10.324219zm0 0"/><path d="m157.492188 169.976562c0 5.703126-4.625 10.328126-10.328126 10.328126-5.699218 0-10.324218-4.625-10.324218-10.328126 0-5.703124 4.625-10.324218 10.324218-10.324218 5.703126 0 10.328126 4.621094 10.328126 10.324218zm0 0"/><path d="m190.96875 218.148438c0 5.703124-4.625 10.324218-10.328125 10.324218s-10.324219-4.621094-10.324219-10.324218c0-5.703126 4.621094-10.328126 10.324219-10.328126s10.328125 4.625 10.328125 10.328126zm0 0"/><path d="m233.683594 96.8125c0 5.703125-4.621094 10.328125-10.324219 10.328125s-10.328125-4.625-10.328125-10.328125 4.625-10.324219 10.328125-10.324219 10.324219 4.621094 10.324219 10.324219zm0 0"/><path d="m152.378906 93.480469c0 5.703125-4.621094 10.324219-10.324218 10.324219-5.703126 0-10.328126-4.621094-10.328126-10.324219s4.625-10.328125 10.328126-10.328125c5.703124 0 10.324218 4.625 10.324218 10.328125zm0 0"/><path d="m132.910156 134.191406c0 5.703125-4.621094 10.328125-10.324218 10.328125-5.703126 0-10.324219-4.625-10.324219-10.328125s4.621093-10.324218 10.324219-10.324218c5.703124 0 10.324218 4.621093 10.324218 10.324218zm0 0"/><path d="m294.621094 134.191406c0 5.703125-4.625 10.328125-10.328125 10.328125s-10.324219-4.625-10.324219-10.328125 4.621094-10.324218 10.324219-10.324218 10.328125 4.621093 10.328125 10.324218zm0 0"/></g><path d="m322.800781 31.199219v99.257812l-20.734375 54.121094c-1.050781 2.75 1.644532 5.445313 4.390625 4.394531l56.832031-21.773437h95.511719c15.019531 0 27.199219-12.175781 27.199219-27.199219v-108.800781c0-15.019531-12.179688-27.199219-27.199219-27.199219h-108.800781c-15.023438 0-27.199219 12.179688-27.199219 27.199219zm0 0" fill="#ffea92"/><path d="m305.207031 193.207031c-1.914062 0-3.769531-.753906-5.199219-2.179687-2.09375-2.09375-2.734374-5.117188-1.675781-7.878906l20.46875-53.433594v-98.515625c0-17.203125 13.996094-31.199219 31.199219-31.199219h108.800781c17.203125 0 31.199219 13.996094 31.199219 31.199219v108.800781c0 17.203125-13.996094 31.199219-31.199219 31.199219h-94.773437l-56.140625 21.507812c-.878907.335938-1.785157.5-2.679688.5zm44.792969-185.207031c-12.792969 0-23.199219 10.40625-23.199219 23.199219v99.257812c0 .488281-.089843.976563-.265625 1.433594l-20.253906 52.867187 55.574219-21.292968c.457031-.175782.945312-.265625 1.433593-.265625h95.511719c12.792969 0 23.199219-10.40625 23.199219-23.199219v-108.800781c0-12.792969-10.40625-23.199219-23.199219-23.199219zm-27.199219 122.457031h.019531zm0 0" fill="#3762cc"/><path d="m411.621094 29.191406c21.566406 0 36.214844 12.710938 36.214844 33.632813 0 21.421875-14.34375 31.515625-34.089844 32.582031-2.035156.109375-3.65625 1.742188-3.761719 3.777344l-.265625 5.234375c-.105469 2.128906-1.863281 3.796875-3.992188 3.796875h-8.257812c-2.160156 0-3.929688-1.710938-3.996094-3.871094l-.550781-17.269531c-.070313-2.257813 1.738281-4.128907 4-4.128907h1.179687c18.1875 0 32.191407-3.21875 32.191407-20.121093 0-11.265625-6.921875-18.183594-18.507813-18.183594-10.257812 0-17.144531 5.183594-18.445312 14.394531-.273438 1.921875-1.996094 3.308594-3.941406 3.308594h-9.304688c-2.410156 0-4.242188-2.113281-3.980469-4.503906 1.875-17.046875 15.347657-28.648438 35.507813-28.648438zm-10.304688 114.59375c-9 0-15.308594-9.585937-9.515625-19.363281.277344-.464844.664063-.886719 1.101563-1.203125 9.6875-6.957031 20.003906-.519531 20.003906 8.820312 0 6.597657-5.148438 11.746094-11.589844 11.746094zm0 0" fill="#f9a7a7"/></svg>