<svg xmlns="http://www.w3.org/2000/svg" width="20" height="17.5" viewBox="0 0 20 17.5"><defs><style>.a{fill:#010101;}</style></defs><path class="a" d="M9.371,34.5h2.5a.625.625,0,0,0,.625-.625v-1.25A.625.625,0,0,0,11.871,32h-2.5a.625.625,0,0,0-.625.625v1.25A.625.625,0,0,0,9.371,34.5Zm0,5h5A.625.625,0,0,0,15,38.875v-1.25A.625.625,0,0,0,14.371,37h-5a.625.625,0,0,0-.625.625v1.25A.625.625,0,0,0,9.371,39.5Zm10,7.5h-10a.625.625,0,0,0-.625.625v1.25a.625.625,0,0,0,.625.625h10A.625.625,0,0,0,20,48.875v-1.25A.625.625,0,0,0,19.371,47Zm-10-2.5h7.5a.625.625,0,0,0,.625-.625v-1.25A.625.625,0,0,0,16.871,42h-7.5a.625.625,0,0,0-.625.625v1.25A.625.625,0,0,0,9.371,44.5ZM.621,37H2.5V48.875a.625.625,0,0,0,.625.625h1.25A.625.625,0,0,0,5,48.875V37H6.871a.625.625,0,0,0,.442-1.067l-3.125-3.75a.625.625,0,0,0-.884,0L.179,35.933A.626.626,0,0,0,.621,37Z" transform="translate(0.004 -32)"/></svg>