<svg xmlns="http://www.w3.org/2000/svg" xmlns:xlink="http://www.w3.org/1999/xlink" width="16" height="16" viewBox="0 0 16 16"><defs><style>.a{fill:none;}.b{clip-path:url(#a);}.c{fill:#fff;}</style><clipPath id="a"><rect class="a" width="16" height="16" transform="translate(40 136)"/></clipPath></defs><g class="b" transform="translate(-40 -136)"><path class="c" d="M0,7.879V1.5A1.5,1.5,0,0,1,1.5,0H7.879A1.5,1.5,0,0,1,8.939.439l6.621,6.621a1.5,1.5,0,0,1,0,2.121L9.182,15.561a1.5,1.5,0,0,1-2.121,0L.439,8.939A1.5,1.5,0,0,1,0,7.879ZM3.5,2A1.5,1.5,0,1,0,5,3.5,1.5,1.5,0,0,0,3.5,2Z" transform="translate(40 136)"/></g></svg>